<svg width="105" height="100" viewBox="0 0 105 100" fill="none" xmlns="http://www.w3.org/2000/svg">
<path d="M51.6738 50.6768L59.9347 42.8948" stroke="url(#paint0_linear_2916_9847)" stroke-width="2" stroke-miterlimit="10" stroke-linecap="round"/>
<path d="M71.5 36.6692L64.8913 42.8948H59.9348V38.2256L66.5435 32V36.6692H71.5Z" stroke="url(#paint1_linear_2916_9847)" stroke-width="2" stroke-linecap="round" stroke-linejoin="round"/>
<path d="M69.8479 50.6765C69.8479 60.1394 61.7192 67.7969 51.6739 67.7969C41.6287 67.7969 33.5 60.1394 33.5 50.6765C33.5 41.2136 41.6287 33.5562 51.6739 33.5562" stroke="url(#paint2_linear_2916_9847)" stroke-width="2" stroke-linecap="round" stroke-linejoin="round"/>
<path d="M68.427 44.0151C69.3523 46.0696 69.8479 48.3108 69.8479 50.6765C69.8479 53.0422 69.3357 55.299 68.427 57.3379C67.5018 59.3924 66.1801 61.2289 64.5279 62.7853C62.8757 64.3417 60.9261 65.5868 58.7453 66.4584C56.5644 67.33 54.1853 67.7969 51.6739 67.7969C49.1626 67.7969 46.767 67.3144 44.6026 66.4584C42.4218 65.5868 40.4722 64.3417 38.82 62.7853C37.1678 61.2289 35.8461 59.3924 34.9208 57.3379C33.9956 55.2835 33.5 53.0422 33.5 50.6765C33.5 48.3108 34.0122 46.054 34.9208 44.0151C35.8461 41.9607 37.1678 40.1241 38.82 38.5678C40.4722 37.0114 42.4218 35.7662 44.6026 34.8947C46.7835 34.0231 49.1626 33.5562 51.6739 33.5562C54.1853 33.5562 56.5809 34.0386 58.7453 34.8947" stroke="url(#paint3_linear_2916_9847)" stroke-width="2" stroke-linecap="round" stroke-linejoin="round"/>
<path d="M60.0504 47.3459C60.513 48.3732 60.7609 49.4938 60.7609 50.6766C60.7609 51.8595 60.513 52.9801 60.0504 54.0073C59.5878 55.0345 58.927 55.9528 58.1009 56.731C57.2748 57.5092 56.3 58.1318 55.2096 58.5676C54.1191 59.0033 52.9295 59.2368 51.6739 59.2368C50.4182 59.2368 49.2286 59.0033 48.1382 58.5676C47.0478 58.1318 46.073 57.5092 45.2469 56.731C44.4208 55.9528 43.7599 55.0345 43.2973 54.0073C42.8347 52.9801 42.5869 51.8595 42.5869 50.6766C42.5869 49.4938 42.8347 48.3732 43.2973 47.3459C43.7599 46.3187 44.4208 45.4005 45.2469 44.6223C46.073 43.8441 47.0478 43.2215 48.1382 42.7857C49.2286 42.3499 50.4182 42.1165 51.6739 42.1165C52.9295 42.1165 54.1191 42.3499 55.2096 42.7857" stroke="url(#paint4_linear_2916_9847)" stroke-width="2" stroke-linecap="round" stroke-linejoin="round"/>
<defs>
<linearGradient id="paint0_linear_2916_9847" x1="54.1035" y1="45.3784" x2="60.5952" y2="48.7504" gradientUnits="userSpaceOnUse">
<stop stop-color="#2A91C1"/>
<stop offset="0.595" stop-color="#6DB36A"/>
<stop offset="0.995745" stop-color="#8EC43E"/>
</linearGradient>
<linearGradient id="paint1_linear_2916_9847" x1="63.3363" y1="35.4771" x2="72.4246" y2="40.1979" gradientUnits="userSpaceOnUse">
<stop stop-color="#2A91C1"/>
<stop offset="0.595" stop-color="#6DB36A"/>
<stop offset="0.995745" stop-color="#8EC43E"/>
</linearGradient>
<linearGradient id="paint2_linear_2916_9847" x1="44.1906" y1="44.4841" x2="72.7539" y2="59.321" gradientUnits="userSpaceOnUse">
<stop stop-color="#2A91C1"/>
<stop offset="0.595" stop-color="#6DB36A"/>
<stop offset="0.995745" stop-color="#8EC43E"/>
</linearGradient>
<linearGradient id="paint3_linear_2916_9847" x1="44.1906" y1="44.4841" x2="72.7539" y2="59.321" gradientUnits="userSpaceOnUse">
<stop stop-color="#2A91C1"/>
<stop offset="0.595" stop-color="#6DB36A"/>
<stop offset="0.995745" stop-color="#8EC43E"/>
</linearGradient>
<linearGradient id="paint4_linear_2916_9847" x1="47.9322" y1="47.5804" x2="62.2139" y2="54.9989" gradientUnits="userSpaceOnUse">
<stop stop-color="#2A91C1"/>
<stop offset="0.595" stop-color="#6DB36A"/>
<stop offset="0.995745" stop-color="#8EC43E"/>
</linearGradient>
</defs>
</svg>
