<svg width="105" height="100" viewBox="0 0 105 100" fill="none" xmlns="http://www.w3.org/2000/svg">
<path d="M48.6305 32H56.2392C57.9131 32 59.2827 33.3696 59.2827 35.0435V36.5652H45.587V35.0435C45.587 33.3696 46.9566 32 48.6305 32Z" stroke="url(#paint0_linear_2916_9793)" stroke-width="2" stroke-linecap="round" stroke-linejoin="round"/>
<path d="M62.326 35.0435H65.3695V66.9999H39.5V35.0435H42.5435" stroke="url(#paint1_linear_2916_9793)" stroke-width="2" stroke-linecap="round" stroke-linejoin="round"/>
<path d="M42.5435 45.6956L45.587 48.739L50.1522 44.1738" stroke="url(#paint2_linear_2916_9793)" stroke-width="2" stroke-linecap="round" stroke-linejoin="round"/>
<path d="M54.7174 47.2173H60.8044" stroke="url(#paint3_linear_2916_9793)" stroke-width="2" stroke-linecap="round" stroke-linejoin="round"/>
<path d="M42.5435 54.8262L45.587 57.8697L50.1522 53.3044" stroke="url(#paint4_linear_2916_9793)" stroke-width="2" stroke-linecap="round" stroke-linejoin="round"/>
<path d="M54.7174 56.3477H60.8044" stroke="url(#paint5_linear_2916_9793)" stroke-width="2" stroke-linecap="round" stroke-linejoin="round"/>
<defs>
<linearGradient id="paint0_linear_2916_9793" x1="49.6152" y1="33.457" x2="53.9469" y2="39.8158" gradientUnits="userSpaceOnUse">
<stop stop-color="#2A91C1"/>
<stop offset="0.595" stop-color="#6DB36A"/>
<stop offset="0.995745" stop-color="#8EC43E"/>
</linearGradient>
<linearGradient id="paint1_linear_2916_9793" x1="47.1087" y1="45.2423" x2="69.4218" y2="54.0811" gradientUnits="userSpaceOnUse">
<stop stop-color="#2A91C1"/>
<stop offset="0.595" stop-color="#6DB36A"/>
<stop offset="0.995745" stop-color="#8EC43E"/>
</linearGradient>
<linearGradient id="paint2_linear_2916_9793" x1="44.7814" y1="45.6308" x2="49.3411" y2="49.3495" gradientUnits="userSpaceOnUse">
<stop stop-color="#2A91C1"/>
<stop offset="0.595" stop-color="#6DB36A"/>
<stop offset="0.995745" stop-color="#8EC43E"/>
</linearGradient>
<linearGradient id="paint3_linear_2916_9793" x1="56.5077" y1="47.5364" x2="57.123" y2="49.3691" gradientUnits="userSpaceOnUse">
<stop stop-color="#2A91C1"/>
<stop offset="0.595" stop-color="#6DB36A"/>
<stop offset="0.995745" stop-color="#8EC43E"/>
</linearGradient>
<linearGradient id="paint4_linear_2916_9793" x1="44.7814" y1="54.7614" x2="49.3411" y2="58.4801" gradientUnits="userSpaceOnUse">
<stop stop-color="#2A91C1"/>
<stop offset="0.595" stop-color="#6DB36A"/>
<stop offset="0.995745" stop-color="#8EC43E"/>
</linearGradient>
<linearGradient id="paint5_linear_2916_9793" x1="56.5077" y1="56.6668" x2="57.123" y2="58.4995" gradientUnits="userSpaceOnUse">
<stop stop-color="#2A91C1"/>
<stop offset="0.595" stop-color="#6DB36A"/>
<stop offset="0.995745" stop-color="#8EC43E"/>
</linearGradient>
</defs>
</svg>
