<svg width="105" height="100" viewBox="0 0 105 100" fill="none" xmlns="http://www.w3.org/2000/svg">
<path d="M51.5439 66.0879C41.3176 66.0879 33 57.7703 33 47.544C33 37.3177 41.3176 29 51.5439 29C61.7702 29 70.0878 37.3177 70.0878 47.544C70.0878 47.6545 70.0878 47.7549 70.0878 47.8654C70.0878 48.217 69.7963 48.4983 69.4447 48.4983C69.4447 48.4983 69.445 48.4983 69.4349 48.4983C69.0733 48.4983 68.7919 48.1969 68.8019 47.8453C68.8019 47.7448 68.8019 47.6445 68.8019 47.544C68.8019 38.031 61.067 30.2959 51.5539 30.2959C42.0409 30.2959 34.3057 38.031 34.3057 47.544C34.3057 57.0571 42.0409 64.792 51.5539 64.792C53.8744 64.792 56.1245 64.34 58.2441 63.4459C58.5756 63.3053 58.9574 63.466 59.088 63.7874C59.2287 64.1189 59.0679 64.5006 58.7464 64.6312C56.4661 65.5855 54.0553 66.0778 51.5539 66.0778L51.5439 66.0879Z" fill="#0C80CD" stroke="#0C80CD" stroke-width="0.3"/>
<path d="M51.5438 40.1811C46.8024 40.1811 42.2918 38.393 38.8362 35.1382C38.575 34.8971 38.5649 34.4854 38.806 34.2242C39.0471 33.963 39.4591 33.9529 39.7203 34.194C42.9348 37.2177 47.1339 38.8852 51.5438 38.8852C55.9538 38.8852 60.223 37.1975 63.4476 34.1236C63.7087 33.8725 64.1208 33.8826 64.3618 34.1437C64.613 34.4049 64.6029 34.8168 64.3417 35.0579C60.8761 38.3629 56.3355 40.1811 51.5438 40.1811Z" fill="#0C80CD" stroke="#0C80CD" stroke-width="0.3"/>
<path d="M39.3384 61.0054C39.1676 61.0054 38.9969 60.9351 38.8663 60.7945C38.6252 60.5333 38.6353 60.1214 38.8965 59.8803C42.342 56.6758 46.8324 54.9078 51.5337 54.9078C52.93 54.9078 54.3162 55.0585 55.6623 55.3699C56.0139 55.4503 56.2248 55.7918 56.1545 56.1434C56.0741 56.495 55.7326 56.7059 55.381 56.6356C54.1253 56.3544 52.8296 56.2037 51.5337 56.2037C47.1539 56.2037 42.975 57.8512 39.7806 60.8347C39.66 60.9552 39.4991 61.0054 39.3384 61.0054Z" fill="#0C80CD" stroke="#0C80CD" stroke-width="0.3"/>
<path d="M51.5438 66.0879C45.9184 66.0879 41.5084 57.9411 41.5084 47.544C41.5084 37.147 45.9184 29 51.5438 29C56.4058 29 60.4542 35.1378 61.3884 43.9175C61.4286 44.2691 61.1673 44.5906 60.8158 44.6308C60.4642 44.671 60.1428 44.4097 60.1026 44.0581C59.2588 36.082 55.6625 30.2959 51.5438 30.2959C46.722 30.2959 42.8043 38.031 42.8043 47.544C42.8043 57.0571 46.722 64.792 51.5438 64.792C53.2616 64.792 54.9292 63.7775 56.3757 61.8588C56.5867 61.5775 56.9985 61.5172 57.2797 61.7282C57.561 61.9392 57.6212 62.3509 57.4102 62.6322C55.7125 64.8924 53.6835 66.0778 51.5438 66.0778V66.0879Z" fill="#0C80CD" stroke="#0C80CD" stroke-width="0.3"/>
<path d="M58.4953 48.1865H33.6428C33.2812 48.1865 33 47.8953 33 47.5437C33 47.1921 33.2912 46.9008 33.6428 46.9008H58.4953C58.8569 46.9008 59.1383 47.1921 59.1383 47.5437C59.1383 47.8953 58.8469 48.1865 58.4953 48.1865Z" fill="#0C80CD" stroke="#0C80CD" stroke-width="0.3"/>
<path d="M51.5439 66.0888C51.1822 66.0888 50.9008 65.7975 50.9008 65.4459V29.6539C50.9008 29.2923 51.1923 29.011 51.5439 29.011C51.8955 29.011 52.1867 29.3023 52.1867 29.6539V65.4459C52.1867 65.8075 51.8955 66.0888 51.5439 66.0888Z" fill="#0C80CD" stroke="#0C80CD" stroke-width="0.3"/>
<path d="M63.8897 67.5753C63.8194 67.5753 63.7388 67.5652 63.6685 67.5451C58.9873 66.1086 56.1143 63.6073 55.1399 60.1215C52.729 51.4924 62.8851 40.0005 63.3271 39.5083C63.6185 39.1868 64.1708 39.1868 64.4521 39.5083C64.864 39.9603 74.4173 50.7692 72.82 59.2978C72.2575 62.3315 70.359 64.6922 67.1746 66.3196C66.8029 66.5104 66.3509 66.3598 66.16 65.9881C65.9692 65.6164 66.1197 65.1644 66.4914 64.9735C69.2338 63.5672 70.8612 61.5681 71.3333 59.0165C72.579 52.3463 65.8988 43.6269 63.8797 41.1758C61.7902 43.7173 54.7082 52.9692 56.5867 59.7097C57.4104 62.6731 59.9418 64.8228 64.1007 66.0986C64.5025 66.2192 64.7235 66.641 64.6029 67.0428C64.5025 67.3643 64.2011 67.5753 63.8797 67.5753H63.8897Z" fill="#0C80CD" stroke="#0C80CD" stroke-width="0.3"/>
<path d="M63.8897 71.8537C63.4678 71.8537 63.1363 71.5122 63.1363 71.1003V49.5026C63.1363 49.0806 63.4778 48.7491 63.8897 48.7491C64.3016 48.7491 64.6431 49.0907 64.6431 49.5026V71.1003C64.6431 71.5222 64.3016 71.8537 63.8897 71.8537Z" fill="#0C80CD" stroke="#0C80CD" stroke-width="0.3"/>
<path d="M63.8897 62.1803C63.5783 62.1803 63.2867 61.9895 63.1762 61.6781C63.0356 61.2863 63.2367 60.8544 63.6285 60.7138C63.6285 60.7138 66.4511 59.6589 67.5059 57.469C67.6867 57.0973 68.1387 56.9366 68.5104 57.1174C68.8821 57.2982 69.0429 57.7503 68.8621 58.1219C67.5361 60.8844 64.2814 62.0899 64.1408 62.1301C64.0604 62.1602 63.97 62.1703 63.8796 62.1703L63.8897 62.1803Z" fill="#0C80CD" stroke="#0C80CD" stroke-width="0.3"/>
<path d="M63.8897 57.0574C63.5783 57.0574 63.2867 56.8665 63.1762 56.5551C63.0356 56.1634 63.2367 55.7313 63.6285 55.5907C63.6586 55.5806 65.2055 54.9981 65.7781 53.8027C65.9589 53.431 66.411 53.2702 66.7826 53.451C67.1543 53.6318 67.3151 54.0839 67.1343 54.4555C66.2905 56.2135 64.2212 56.977 64.1408 57.0071C64.0604 57.0373 63.97 57.0473 63.8796 57.0473L63.8897 57.0574Z" fill="#0C80CD" stroke="#0C80CD" stroke-width="0.3"/>
</svg>
