<svg width="105" height="100" viewBox="0 0 105 100" fill="none" xmlns="http://www.w3.org/2000/svg">
<path d="M51.5439 66.0879C41.3176 66.0879 33 57.7703 33 47.544C33 37.3177 41.3176 29 51.5439 29C61.7702 29 70.0878 37.3177 70.0878 47.544C70.0878 47.6545 70.0878 47.7549 70.0878 47.8654C70.0878 48.217 69.7963 48.4983 69.4447 48.4983C69.4447 48.4983 69.445 48.4983 69.4349 48.4983C69.0733 48.4983 68.7919 48.1969 68.8019 47.8453C68.8019 47.7448 68.8019 47.6445 68.8019 47.544C68.8019 38.031 61.067 30.2959 51.5539 30.2959C42.0409 30.2959 34.3057 38.031 34.3057 47.544C34.3057 57.0571 42.0409 64.792 51.5539 64.792C53.8744 64.792 56.1245 64.34 58.2441 63.4459C58.5756 63.3053 58.9574 63.466 59.088 63.7874C59.2287 64.1189 59.0679 64.5006 58.7464 64.6312C56.4661 65.5855 54.0553 66.0778 51.5539 66.0778L51.5439 66.0879Z" fill="url(#paint0_linear_2916_9835)" stroke="url(#paint1_linear_2916_9835)" stroke-width="0.3"/>
<path d="M51.5438 40.1811C46.8024 40.1811 42.2918 38.393 38.8362 35.1382C38.575 34.8971 38.5649 34.4854 38.806 34.2242C39.0471 33.963 39.4591 33.9529 39.7203 34.194C42.9348 37.2177 47.1339 38.8852 51.5438 38.8852C55.9538 38.8852 60.223 37.1975 63.4476 34.1236C63.7087 33.8725 64.1208 33.8826 64.3618 34.1437C64.613 34.4049 64.6029 34.8168 64.3417 35.0579C60.8761 38.3629 56.3355 40.1811 51.5438 40.1811Z" fill="url(#paint2_linear_2916_9835)" stroke="url(#paint3_linear_2916_9835)" stroke-width="0.3"/>
<path d="M39.3384 61.0053C39.1676 61.0053 38.9969 60.935 38.8663 60.7943C38.6252 60.5332 38.6353 60.1213 38.8965 59.8802C42.342 56.6757 46.8324 54.9077 51.5337 54.9077C52.93 54.9077 54.3162 55.0584 55.6623 55.3698C56.0139 55.4501 56.2248 55.7917 56.1545 56.1433C56.0741 56.4949 55.7326 56.7058 55.381 56.6355C54.1253 56.3542 52.8296 56.2036 51.5337 56.2036C47.1539 56.2036 42.975 57.8511 39.7806 60.8346C39.66 60.9551 39.4991 61.0053 39.3384 61.0053Z" fill="url(#paint4_linear_2916_9835)" stroke="url(#paint5_linear_2916_9835)" stroke-width="0.3"/>
<path d="M51.5438 66.0879C45.9184 66.0879 41.5084 57.9411 41.5084 47.544C41.5084 37.147 45.9184 29 51.5438 29C56.4058 29 60.4542 35.1378 61.3884 43.9175C61.4286 44.2691 61.1673 44.5906 60.8158 44.6308C60.4642 44.671 60.1428 44.4097 60.1026 44.0581C59.2588 36.082 55.6625 30.2959 51.5438 30.2959C46.722 30.2959 42.8043 38.031 42.8043 47.544C42.8043 57.0571 46.722 64.792 51.5438 64.792C53.2616 64.792 54.9292 63.7775 56.3757 61.8588C56.5867 61.5775 56.9985 61.5172 57.2797 61.7282C57.561 61.9392 57.6212 62.3509 57.4102 62.6322C55.7125 64.8924 53.6835 66.0778 51.5438 66.0778V66.0879Z" fill="url(#paint6_linear_2916_9835)" stroke="url(#paint7_linear_2916_9835)" stroke-width="0.3"/>
<path d="M58.4953 48.1866H33.6428C33.2812 48.1866 33 47.8954 33 47.5438C33 47.1922 33.2912 46.9009 33.6428 46.9009H58.4953C58.8569 46.9009 59.1383 47.1922 59.1383 47.5438C59.1383 47.8954 58.8469 48.1866 58.4953 48.1866Z" fill="url(#paint8_linear_2916_9835)" stroke="url(#paint9_linear_2916_9835)" stroke-width="0.3"/>
<path d="M51.5439 66.0888C51.1822 66.0888 50.9008 65.7975 50.9008 65.4459V29.6539C50.9008 29.2923 51.1923 29.011 51.5439 29.011C51.8955 29.011 52.1867 29.3023 52.1867 29.6539V65.4459C52.1867 65.8075 51.8955 66.0888 51.5439 66.0888Z" fill="url(#paint10_linear_2916_9835)" stroke="url(#paint11_linear_2916_9835)" stroke-width="0.3"/>
<path d="M63.8897 67.5751C63.8194 67.5751 63.7388 67.5651 63.6685 67.545C58.9873 66.1085 56.1143 63.6071 55.1399 60.1214C52.729 51.4923 62.8851 40.0004 63.3271 39.5082C63.6185 39.1867 64.1708 39.1867 64.4521 39.5082C64.864 39.9602 74.4173 50.7691 72.82 59.2977C72.2575 62.3314 70.359 64.6921 67.1746 66.3195C66.8029 66.5103 66.3509 66.3597 66.16 65.988C65.9692 65.6163 66.1197 65.1643 66.4914 64.9734C69.2338 63.567 70.8612 61.5679 71.3333 59.0164C72.579 52.3462 65.8988 43.6267 63.8797 41.1756C61.7902 43.7171 54.7082 52.9691 56.5867 59.7096C57.4104 62.673 59.9418 64.8227 64.1007 66.0985C64.5025 66.219 64.7235 66.6409 64.6029 67.0427C64.5025 67.3642 64.2011 67.5751 63.8797 67.5751H63.8897Z" fill="url(#paint12_linear_2916_9835)" stroke="url(#paint13_linear_2916_9835)" stroke-width="0.3"/>
<path d="M63.8897 71.8538C63.4678 71.8538 63.1363 71.5123 63.1363 71.1004V49.5027C63.1363 49.0808 63.4778 48.7493 63.8897 48.7493C64.3016 48.7493 64.6431 49.0908 64.6431 49.5027V71.1004C64.6431 71.5223 64.3016 71.8538 63.8897 71.8538Z" fill="url(#paint14_linear_2916_9835)" stroke="url(#paint15_linear_2916_9835)" stroke-width="0.3"/>
<path d="M63.8897 62.1803C63.5783 62.1803 63.2867 61.9895 63.1762 61.6781C63.0356 61.2863 63.2367 60.8544 63.6285 60.7138C63.6285 60.7138 66.4511 59.6589 67.5059 57.469C67.6867 57.0973 68.1387 56.9366 68.5104 57.1174C68.8821 57.2982 69.0429 57.7503 68.8621 58.1219C67.5361 60.8844 64.2814 62.0899 64.1408 62.1301C64.0604 62.1602 63.97 62.1703 63.8796 62.1703L63.8897 62.1803Z" fill="url(#paint16_linear_2916_9835)" stroke="url(#paint17_linear_2916_9835)" stroke-width="0.3"/>
<path d="M63.8897 57.0575C63.5783 57.0575 63.2867 56.8667 63.1762 56.5552C63.0356 56.1635 63.2367 55.7314 63.6285 55.5908C63.6586 55.5808 65.2055 54.9982 65.7781 53.8028C65.9589 53.4311 66.411 53.2703 66.7826 53.4511C67.1543 53.6319 67.3151 54.084 67.1343 54.4557C66.2905 56.2136 64.2212 56.9771 64.1408 57.0072C64.0604 57.0374 63.97 57.0475 63.8796 57.0475L63.8897 57.0575Z" fill="url(#paint18_linear_2916_9835)" stroke="url(#paint19_linear_2916_9835)" stroke-width="0.3"/>
<defs>
<linearGradient id="paint0_linear_2916_9835" x1="43.9082" y1="40.8366" x2="73.7673" y2="55.4474" gradientUnits="userSpaceOnUse">
<stop stop-color="#2A91C1"/>
<stop offset="0.595" stop-color="#6DB36A"/>
<stop offset="0.995745" stop-color="#8EC43E"/>
</linearGradient>
<linearGradient id="paint1_linear_2916_9835" x1="43.9082" y1="40.8366" x2="73.7673" y2="55.4474" gradientUnits="userSpaceOnUse">
<stop stop-color="#2A91C1"/>
<stop offset="0.595" stop-color="#6DB36A"/>
<stop offset="0.995745" stop-color="#8EC43E"/>
</linearGradient>
<linearGradient id="paint2_linear_2916_9835" x1="46.2535" y1="35.9328" x2="51.2945" y2="46.1763" gradientUnits="userSpaceOnUse">
<stop stop-color="#2A91C1"/>
<stop offset="0.595" stop-color="#6DB36A"/>
<stop offset="0.995745" stop-color="#8EC43E"/>
</linearGradient>
<linearGradient id="paint3_linear_2916_9835" x1="46.2535" y1="35.9328" x2="51.2945" y2="46.1763" gradientUnits="userSpaceOnUse">
<stop stop-color="#2A91C1"/>
<stop offset="0.595" stop-color="#6DB36A"/>
<stop offset="0.995745" stop-color="#8EC43E"/>
</linearGradient>
<linearGradient id="paint4_linear_2916_9835" x1="43.8325" y1="56.8537" x2="49.7104" y2="65.0968" gradientUnits="userSpaceOnUse">
<stop stop-color="#2A91C1"/>
<stop offset="0.595" stop-color="#6DB36A"/>
<stop offset="0.995745" stop-color="#8EC43E"/>
</linearGradient>
<linearGradient id="paint5_linear_2916_9835" x1="43.8325" y1="56.8537" x2="49.7104" y2="65.0968" gradientUnits="userSpaceOnUse">
<stop stop-color="#2A91C1"/>
<stop offset="0.595" stop-color="#6DB36A"/>
<stop offset="0.995745" stop-color="#8EC43E"/>
</linearGradient>
<linearGradient id="paint6_linear_2916_9835" x1="47.3567" y1="40.8366" x2="65.9207" y2="45.7067" gradientUnits="userSpaceOnUse">
<stop stop-color="#2A91C1"/>
<stop offset="0.595" stop-color="#6DB36A"/>
<stop offset="0.995745" stop-color="#8EC43E"/>
</linearGradient>
<linearGradient id="paint7_linear_2916_9835" x1="47.3567" y1="40.8366" x2="65.9207" y2="45.7067" gradientUnits="userSpaceOnUse">
<stop stop-color="#2A91C1"/>
<stop offset="0.595" stop-color="#6DB36A"/>
<stop offset="0.995745" stop-color="#8EC43E"/>
</linearGradient>
<linearGradient id="paint8_linear_2916_9835" x1="40.6877" y1="47.3112" x2="40.9487" y2="49.9069" gradientUnits="userSpaceOnUse">
<stop stop-color="#2A91C1"/>
<stop offset="0.595" stop-color="#6DB36A"/>
<stop offset="0.995745" stop-color="#8EC43E"/>
</linearGradient>
<linearGradient id="paint9_linear_2916_9835" x1="40.6877" y1="47.3112" x2="40.9487" y2="49.9069" gradientUnits="userSpaceOnUse">
<stop stop-color="#2A91C1"/>
<stop offset="0.595" stop-color="#6DB36A"/>
<stop offset="0.995745" stop-color="#8EC43E"/>
</linearGradient>
<linearGradient id="paint10_linear_2916_9835" x1="51.279" y1="40.8443" x2="52.5617" y2="40.8661" gradientUnits="userSpaceOnUse">
<stop stop-color="#2A91C1"/>
<stop offset="0.595" stop-color="#6DB36A"/>
<stop offset="0.995745" stop-color="#8EC43E"/>
</linearGradient>
<linearGradient id="paint11_linear_2916_9835" x1="51.279" y1="40.8443" x2="52.5617" y2="40.8661" gradientUnits="userSpaceOnUse">
<stop stop-color="#2A91C1"/>
<stop offset="0.595" stop-color="#6DB36A"/>
<stop offset="0.995745" stop-color="#8EC43E"/>
</linearGradient>
<linearGradient id="paint12_linear_2916_9835" x1="60.132" y1="48.3016" x2="76.6796" y2="53.5159" gradientUnits="userSpaceOnUse">
<stop stop-color="#2A91C1"/>
<stop offset="0.595" stop-color="#6DB36A"/>
<stop offset="0.995745" stop-color="#8EC43E"/>
</linearGradient>
<linearGradient id="paint13_linear_2916_9835" x1="60.132" y1="48.3016" x2="76.6796" y2="53.5159" gradientUnits="userSpaceOnUse">
<stop stop-color="#2A91C1"/>
<stop offset="0.595" stop-color="#6DB36A"/>
<stop offset="0.995745" stop-color="#8EC43E"/>
</linearGradient>
<linearGradient id="paint14_linear_2916_9835" x1="63.5795" y1="56.1231" x2="65.0815" y2="56.171" gradientUnits="userSpaceOnUse">
<stop stop-color="#2A91C1"/>
<stop offset="0.595" stop-color="#6DB36A"/>
<stop offset="0.995745" stop-color="#8EC43E"/>
</linearGradient>
<linearGradient id="paint15_linear_2916_9835" x1="63.5795" y1="56.1231" x2="65.0815" y2="56.171" gradientUnits="userSpaceOnUse">
<stop stop-color="#2A91C1"/>
<stop offset="0.595" stop-color="#6DB36A"/>
<stop offset="0.995745" stop-color="#8EC43E"/>
</linearGradient>
<linearGradient id="paint16_linear_2916_9835" x1="64.8388" y1="58.6826" x2="69.2752" y2="61.1356" gradientUnits="userSpaceOnUse">
<stop stop-color="#2A91C1"/>
<stop offset="0.595" stop-color="#6DB36A"/>
<stop offset="0.995745" stop-color="#8EC43E"/>
</linearGradient>
<linearGradient id="paint17_linear_2916_9835" x1="64.8388" y1="58.6826" x2="69.2752" y2="61.1356" gradientUnits="userSpaceOnUse">
<stop stop-color="#2A91C1"/>
<stop offset="0.595" stop-color="#6DB36A"/>
<stop offset="0.995745" stop-color="#8EC43E"/>
</linearGradient>
<linearGradient id="paint18_linear_2916_9835" x1="64.3306" y1="54.5514" x2="67.4753" y2="56.256" gradientUnits="userSpaceOnUse">
<stop stop-color="#2A91C1"/>
<stop offset="0.595" stop-color="#6DB36A"/>
<stop offset="0.995745" stop-color="#8EC43E"/>
</linearGradient>
<linearGradient id="paint19_linear_2916_9835" x1="64.3306" y1="54.5514" x2="67.4753" y2="56.256" gradientUnits="userSpaceOnUse">
<stop stop-color="#2A91C1"/>
<stop offset="0.595" stop-color="#6DB36A"/>
<stop offset="0.995745" stop-color="#8EC43E"/>
</linearGradient>
</defs>
</svg>
