<svg id="그룹_357" data-name="그룹 357" xmlns="http://www.w3.org/2000/svg" width="64.177" height="17.516" viewBox="0 0 64.177 17.516">
  <path id="패스_3195" data-name="패스 3195" d="M179.385,302.882a8.758,8.758,0,1,1,8.76-8.757A8.767,8.767,0,0,1,179.385,302.882Zm0-12.094a3.336,3.336,0,1,0,3.336,3.338A3.341,3.341,0,0,0,179.385,290.788Z" transform="translate(-123.969 -285.366)" fill="#f28427"/>
  <path id="패스_3196" data-name="패스 3196" d="M128.612,286.125l-11.109,11.5,3.736,3.847,7.29-7.553,7.4,7.551,3.731-3.844Z" transform="translate(-117.503 -285.458)" fill="#8bb929"/>
  <path id="패스_3197" data-name="패스 3197" d="M155.19,286.125l-11.108,11.5,3.734,3.844,7.291-7.551,7.4,7.551,3.732-3.844Z" transform="translate(-120.738 -285.458)" fill="#0099db"/>
</svg>
